HIERARCHY
ROOT hip
{
  OFFSET 0.00112043 5.09927 -9.65472
  CHANNELS 6 Xposition Yposition Zposition Zrotation Xrotation Yrotation
  JOINT abdomen
  {
    OFFSET 0 -1.186 -1.5018
    CHANNELS 3 Zrotation Xrotation Yrotation
    JOINT abdomen2
    {
      OFFSET 0 9.964 0.2134
      CHANNELS 3 Zrotation Xrotation Yrotation
      JOINT chest
      {
        OFFSET 0 13.134 -3.2573
        CHANNELS 3 Zrotation Xrotation Yrotation
        JOINT neck
        {
          OFFSET 0 20.686 -1.6905
          CHANNELS 3 Zrotation Xrotation Yrotation
          JOINT head
          {
            OFFSET 0 7.238 -0.1237
            CHANNELS 3 Zrotation Xrotation Yrotation
            End Site
            {
              OFFSET 0 0 0
            }
          }
        }
        JOINT lCollar
        {
          OFFSET 1.7069 20.075 5.0056
          CHANNELS 3 Zrotation Xrotation Yrotation
          JOINT lShldr
          {
            OFFSET 13.6458 -0.047 -4.849
            CHANNELS 3 Zrotation Xrotation Yrotation
            JOINT lForeArm
            {
              OFFSET 28.3255 -0.9759 2.2888
              CHANNELS 3 Zrotation Xrotation Yrotation
              JOINT lHand
              {
                OFFSET 22.1583 -0.53 10.8316
                CHANNELS 3 Zrotation Xrotation Yrotation
                JOINT lThumb1
                {
                  OFFSET 0.786 0.112 2.5817
                  CHANNELS 3 Zrotation Xrotation Yrotation
                  JOINT lThumb2
                  {
                    OFFSET 0.3601 -0.878 4.2331
                    CHANNELS 3 Zrotation Xrotation Yrotation
                    JOINT lThumb2_End
                    {
                      OFFSET 1.8127 -1.216 2.2227
                      CHANNELS 3 Zrotation Xrotation Yrotation
                      End Site
                      {
                        OFFSET 0.0181 -0.0122 0.0222
                      }
                    }
                  }
                }
                JOINT lCarpal1
                {
                  OFFSET 0.9571 1.114 1.7695
                  CHANNELS 3 Zrotation Xrotation Yrotation
                  JOINT lIndex1
                  {
                    OFFSET 4.1246 0.487 4.1451
                    CHANNELS 3 Zrotation Xrotation Yrotation
                    JOINT lIndex2
                    {
                      OFFSET 3.4052 -1.454 2.7682
                      CHANNELS 3 Zrotation Xrotation Yrotation
                      JOINT lIndex2_End
                      {
                        OFFSET 1.4531 -1.795 1.2713
                        CHANNELS 3 Zrotation Xrotation Yrotation
                        End Site
                        {
                          OFFSET 0.0145 -0.0179 0.0127
                        }
                      }
                    }
                  }
                  JOINT lMid1
                  {
                    OFFSET 5.6954 0.21 2.1184
                    CHANNELS 3 Zrotation Xrotation Yrotation
                    JOINT lMid2
                    {
                      OFFSET 3.9766 -1.54 2.3863
                      CHANNELS 3 Zrotation Xrotation Yrotation
                      JOINT lMid2_End
                      {
                        OFFSET 1.4042 -1.926 1.125
                        CHANNELS 3 Zrotation Xrotation Yrotation
                        End Site
                        {
                          OFFSET 0.014 -0.0193 0.0113
                        }
                      }
                    }
                  }
                }
                JOINT lCarpal2
                {
                  OFFSET 2.0956 0.66 -0.3894
                  CHANNELS 3 Zrotation Xrotation Yrotation
                  JOINT lRing1
                  {
                    OFFSET 5.0395 -0.09 2.4971
                    CHANNELS 3 Zrotation Xrotation Yrotation
                    JOINT lRing2
                    {
                      OFFSET 3.7921 -1.552 1.4806
                      CHANNELS 3 Zrotation Xrotation Yrotation
                      JOINT lRing2_End
                      {
                        OFFSET 1.4655 -1.808 0.9609
                        CHANNELS 3 Zrotation Xrotation Yrotation
                        End Site
                        {
                          OFFSET 0.0147 -0.0181 0.0096
                        }
                      }
                    }
                  }
                  JOINT lPinky1
                  {
                    OFFSET 4.9141 -1.269 0.3591
                    CHANNELS 3 Zrotation Xrotation Yrotation
                    JOINT lPinky2
                    {
                      OFFSET 3.1477 -1.685 0.8462
                      CHANNELS 3 Zrotation Xrotation Yrotation
                      JOINT lPinky2_End
                      {
                        OFFSET 0.8055 -1.585 0.7955
                        CHANNELS 3 Zrotation Xrotation Yrotation
                        End Site
                        {
                          OFFSET 0.0081 -0.0158 0.008
                        }
                      }
                    }
                  }
                }
              }
            }
          }
        }
        JOINT rCollar
        {
          OFFSET -1.7069 20.075 5.0056
          CHANNELS 3 Zrotation Xrotation Yrotation
          JOINT rShldr
          {
            OFFSET -13.6458 -0.047 -4.849
            CHANNELS 3 Zrotation Xrotation Yrotation
            JOINT rForeArm
            {
              OFFSET -28.3255 -0.9759 2.2888
              CHANNELS 3 Zrotation Xrotation Yrotation
              JOINT rHand
              {
                OFFSET -22.1583 -0.53 10.8316
                CHANNELS 3 Zrotation Xrotation Yrotation
                JOINT rThumb1
                {
                  OFFSET -0.786 0.112 2.5817
                  CHANNELS 3 Zrotation Xrotation Yrotation
                  JOINT rThumb2
                  {
                    OFFSET -0.3601 -0.878 4.2331
                    CHANNELS 3 Zrotation Xrotation Yrotation
                    JOINT rThumb2_End
                    {
                      OFFSET -1.8127 -1.216 2.2227
                      CHANNELS 3 Zrotation Xrotation Yrotation
                      End Site
                      {
                        OFFSET -0.0181 -0.0122 0.0222
                      }
                    }
                  }
                }
                JOINT rCarpal1
                {
                  OFFSET -0.9571 1.114 1.7695
                  CHANNELS 3 Zrotation Xrotation Yrotation
                  JOINT rIndex1
                  {
                    OFFSET -4.1246 0.487 4.1451
                    CHANNELS 3 Zrotation Xrotation Yrotation
                    JOINT rIndex2
                    {
                      OFFSET -3.4052 -1.454 2.7682
                      CHANNELS 3 Zrotation Xrotation Yrotation
                      JOINT rIndex2_End
                      {
                        OFFSET -1.4531 -1.795 1.2713
                        CHANNELS 3 Zrotation Xrotation Yrotation
                        End Site
                        {
                          OFFSET -0.0145 -0.018 0.0127
                        }
                      }
                    }
                  }
                  JOINT rMid1
                  {
                    OFFSET -5.6954 0.21 2.1184
                    CHANNELS 3 Zrotation Xrotation Yrotation
                    JOINT rMid2
                    {
                      OFFSET -3.9766 -1.54 2.3863
                      CHANNELS 3 Zrotation Xrotation Yrotation
                      JOINT rMid2_End
                      {
                        OFFSET -1.4042 -1.926 1.125
                        CHANNELS 3 Zrotation Xrotation Yrotation
                        End Site
                        {
                          OFFSET -0.014 -0.0193 0.0113
                        }
                      }
                    }
                  }
                }
                JOINT rCarpal2
                {
                  OFFSET -2.0956 0.66 -0.3894
                  CHANNELS 3 Zrotation Xrotation Yrotation
                  JOINT rRing1
                  {
                    OFFSET -5.0395 -0.09 2.4971
                    CHANNELS 3 Zrotation Xrotation Yrotation
                    JOINT rRing2
                    {
                      OFFSET -3.7921 -1.552 1.4806
                      CHANNELS 3 Zrotation Xrotation Yrotation
                      JOINT rRing2_End
                      {
                        OFFSET -1.4655 -1.808 0.9609
                        CHANNELS 3 Zrotation Xrotation Yrotation
                        End Site
                        {
                          OFFSET -0.0147 -0.0181 0.0096
                        }
                      }
                    }
                  }
                  JOINT rPinky1
                  {
                    OFFSET -4.9141 -1.269 0.3592
                    CHANNELS 3 Zrotation Xrotation Yrotation
                    JOINT rPinky2
                    {
                      OFFSET -3.1477 -1.685 0.8462
                      CHANNELS 3 Zrotation Xrotation Yrotation
                      JOINT rPinky2_End
                      {
                        OFFSET -0.8055 -1.585 0.7955
                        CHANNELS 3 Zrotation Xrotation Yrotation
                        End Site
                        {
                          OFFSET -0.0081 -0.0158 0.008
                        }
                      }
                    }
                  }
                }
              }
            }
          }
        }
      }
    }
  }
  JOINT lThigh
  {
    OFFSET 8.367 -8.2066 0.5982
    CHANNELS 3 Zrotation Xrotation Yrotation
    JOINT lShin
    {
      OFFSET 2.1923 -43.463 -0.4932
      CHANNELS 3 Zrotation Xrotation Yrotation
      JOINT lFoot
      {
        OFFSET 0.7333 -45.8593 -2.6451
        CHANNELS 3 Zrotation Xrotation Yrotation
        End Site
        {
          OFFSET 2.6618 -4.2699 12.3931
        }
      }
    }
  }
  JOINT rThigh
  {
    OFFSET -8.367 -8.2066 0.5982
    CHANNELS 3 Zrotation Xrotation Yrotation
    JOINT rShin
    {
      OFFSET -2.1923 -43.463 -0.4931
      CHANNELS 3 Zrotation Xrotation Yrotation
      JOINT rFoot
      {
        OFFSET -0.7333 -45.8593 -2.6451
        CHANNELS 3 Zrotation Xrotation Yrotation
        End Site
        {
          OFFSET -2.6618 -4.2699 12.3931
        }
      }
    }
  }
}
MOTION
Frames:	5
Frame Time:	0.0333333
42.2532 87.8318 4.53908 -0 -13.1744 -0 -0.198246 6.70843 -0.115254 -0.386819 13.4173 -0.209121 -0.386818 13.4172 -0.209121 1.24431e-006 -30.611 4.58281e-007 -1.9514e-007 -0.613741 3.5937e-008 -8.00266 -0.194465 6.79969e-007 -56.1107 -0.483241 1.77056 0.172072 0.0931177 -10.2087 -6.51219 2.57103 0.027311 -1.43875e-007 -1.86715e-006 -3.14178e-007 3.61181e-008 1.36805e-006 9.98202e-007 -1.07756e-007 -4.99101e-007 6.84025e-007 -3.97569e-016 0 -1.59028e-015 -1.43875e-007 -1.86715e-006 -3.14178e-007 3.61181e-008 1.36805e-006 9.98202e-007 -1.07756e-007 -4.99101e-007 6.84025e-007 -1.43875e-007 -1.86715e-006 -3.14178e-007 3.61181e-008 1.36805e-006 9.98202e-007 -1.07756e-007 -4.99101e-007 6.84025e-007 -3.97569e-016 0 -1.59028e-015 -1.43875e-007 -1.86715e-006 -3.14178e-007 3.61181e-008 1.36805e-006 9.98202e-007 -1.07756e-007 -4.99101e-007 6.84025e-007 -1.43875e-007 -1.86715e-006 -3.14178e-007 3.61181e-008 1.36805e-006 9.98202e-007 -1.07756e-007 -4.99101e-007 6.84025e-007 7.99916 -0.194707 -1.10971e-006 56.3185 -0.490173 -1.03846 -1.92523 -0.310186 9.11583 6.49225 2.60876 0.0253989 -1.19271e-015 -1.59028e-015 1.59028e-015 -7.59245e-006 -7.33959e-007 -1.20479e-006 3.97956e-006 -1.04884e-006 3.04762e-008 -9.93923e-016 -1.59028e-015 -0 4.96962e-015 1.59028e-015 7.95139e-015 -7.59245e-006 -7.33959e-007 -1.20479e-006 3.97956e-006 -1.04884e-006 3.04762e-008 4.96962e-015 1.59028e-015 7.95139e-015 -7.59245e-006 -7.33959e-007 -1.20479e-006 3.97956e-006 -1.04884e-006 3.04762e-008 -9.93923e-016 -1.59028e-015 -0 4.96962e-015 1.59028e-015 7.95139e-015 -7.59245e-006 -7.33959e-007 -1.20479e-006 3.97956e-006 -1.04884e-006 3.04762e-008 4.96962e-015 1.59028e-015 7.95139e-015 -7.59245e-006 -7.33959e-007 -1.20479e-006 3.97956e-006 -1.04884e-006 3.04762e-008 6.54927 -7.04462 13.4309 2.04268 40.8324 -0.513314 -11.1922 -16.8072 2.26083 -5.55178 -7.20661 -13.5107 -2.30695 41.1535 0.665168 10.3207 -17.255 -2.61105 
42.2529 87.8188 4.54642 -0 -12.4982 -0 -0.200863 6.57451 -0.116733 -0.392052 13.1494 -0.212203 -0.392051 13.1494 -0.212203 2.63921e-006 -30.1179 1.88754e-006 -4.91007e-009 -0.613746 -2.98572e-008 -8.00266 -0.194475 -1.21319e-006 -56.1107 -0.483245 1.77055 0.17208 0.0931127 -10.2087 -6.51222 2.57104 0.0273106 1.078e-007 4.99201e-007 -6.83945e-007 1.078e-007 4.99201e-007 -6.83945e-007 2.38542e-015 0 -0 -6.75868e-015 1.59028e-015 1.59028e-015 1.078e-007 4.99201e-007 -6.83945e-007 1.078e-007 4.99201e-007 -6.83945e-007 1.19271e-015 -6.36111e-015 1.59028e-015 1.078e-007 4.99201e-007 -6.83945e-007 1.078e-007 4.99201e-007 -6.83945e-007 1.19271e-015 -6.36111e-015 1.59028e-015 -6.75868e-015 1.59028e-015 1.59028e-015 1.078e-007 4.99201e-007 -6.83945e-007 1.078e-007 4.99201e-007 -6.83945e-007 1.19271e-015 -6.36111e-015 1.59028e-015 1.078e-007 4.99201e-007 -6.83945e-007 1.078e-007 4.99201e-007 -6.83945e-007 1.19271e-015 -6.36111e-015 1.59028e-015 7.99916 -0.194722 2.05179e-006 56.3185 -0.49017 -1.03846 -1.92524 -0.310188 9.11583 6.49224 2.60875 0.0253992 -3.18055e-015 -1.59028e-015 1.59028e-015 -3.92253e-006 -3.50747e-007 9.24906e-007 -5.96354e-016 -3.18055e-015 -0 3.97569e-016 0 -0 -4.37326e-015 -3.18055e-015 6.36111e-015 -3.92253e-006 -3.50747e-007 9.24906e-007 1.19271e-015 -3.18055e-015 -1.59028e-015 -4.37326e-015 -3.18055e-015 6.36111e-015 -3.92253e-006 -3.50747e-007 9.24906e-007 1.19271e-015 -3.18055e-015 -1.59028e-015 3.97569e-016 0 -0 -4.37326e-015 -3.18055e-015 6.36111e-015 -3.92253e-006 -3.50747e-007 9.24906e-007 1.19271e-015 -3.18055e-015 -1.59028e-015 -4.37326e-015 -3.18055e-015 6.36111e-015 -3.92253e-006 -3.50747e-007 9.24906e-007 1.19271e-015 -3.18055e-015 -1.59028e-015 6.55841 -7.84657 13.4703 2.04254 40.8246 -0.513052 -11.1908 -16.8057 2.26114 -5.55723 -8.00988 -13.5411 -2.3068 41.1457 0.664855 10.3193 -17.2534 -2.61137 
42.2527 87.8064 4.55289 -0 -11.8893 -0 -0.203203 6.45397 -0.118034 -0.396741 12.9083 -0.214928 -0.396741 12.9083 -0.214928 2.97216e-006 -29.6751 2.96656e-006 -4.05602e-008 -0.613742 1.3178e-008 -8.00266 -0.194451 1.64512e-006 -56.1107 -0.483236 1.77056 0.172066 0.0931157 -10.2087 -6.51219 2.57103 0.0273123 1.07839e-007 4.99291e-007 -6.83872e-007 9.35747e-006 -1.50668e-006 1.40191e-006 8.74653e-015 1.59028e-015 -3.18055e-015 -3.97569e-016 1.59028e-015 -1.59028e-015 1.07839e-007 4.99291e-007 -6.83872e-007 9.35747e-006 -1.50668e-006 1.40191e-006 4.77083e-015 0 -0 1.07839e-007 4.99291e-007 -6.83872e-007 9.35747e-006 -1.50668e-006 1.40191e-006 4.77083e-015 0 -0 -3.97569e-016 1.59028e-015 -1.59028e-015 1.07839e-007 4.99291e-007 -6.83872e-007 9.35747e-006 -1.50668e-006 1.40191e-006 4.77083e-015 0 -0 1.07839e-007 4.99291e-007 -6.83872e-007 9.35747e-006 -1.50668e-006 1.40191e-006 4.77083e-015 0 -0 7.99916 -0.194693 -3.01738e-006 56.3185 -0.490177 -1.03845 -1.92524 -0.310189 9.11582 6.49224 2.60875 0.0253981 -2.1233e-006 6.67917e-007 -1.52336e-007 -3.71471e-006 -1.30569e-006 -4.74171e-007 1.85981e-006 1.6861e-006 5.9722e-007 -3.97569e-015 0 1.59028e-015 -2.1233e-006 6.67917e-007 -1.52336e-007 -3.71471e-006 -1.30569e-006 -4.74171e-007 1.85981e-006 1.6861e-006 5.9722e-007 -2.1233e-006 6.67917e-007 -1.52336e-007 -3.71471e-006 -1.30569e-006 -4.74171e-007 1.85981e-006 1.6861e-006 5.9722e-007 -3.97569e-015 0 1.59028e-015 -2.1233e-006 6.67917e-007 -1.52336e-007 -3.71471e-006 -1.30569e-006 -4.74171e-007 1.85981e-006 1.6861e-006 5.9722e-007 -2.1233e-006 6.67917e-007 -1.52336e-007 -3.71471e-006 -1.30569e-006 -4.74171e-007 1.85981e-006 1.6861e-006 5.9722e-007 6.56707 -8.5683 13.5057 2.04225 40.8167 -0.512834 -11.1896 -16.8043 2.26141 -5.56253 -8.73294 -13.5683 -2.30644 41.1384 0.664587 10.318 -17.2521 -2.61162 
42.2525 87.7934 4.55919 -0 -11.28 -0 -0.205226 6.3334 -0.119282 -0.400801 12.6672 -0.217589 -0.400801 12.6672 -0.217589 3.07243e-006 -29.2316 1.44985e-006 2.95573e-007 -0.613739 -1.2838e-008 -8.00266 -0.194472 -5.37352e-007 -56.1107 -0.483241 1.77056 0.172085 0.0931117 -10.2087 -6.51222 2.57104 0.0273122 -7.95139e-016 -1.59028e-015 3.18055e-015 -7.16713e-008 8.68241e-007 1.68255e-006 -5.1684e-015 0 -0 -3.97569e-015 0 3.18055e-015 -4.37326e-015 0 6.36111e-015 -7.16713e-008 8.68241e-007 1.68255e-006 -9.54166e-015 1.59028e-015 4.77083e-015 -4.37326e-015 0 6.36111e-015 -7.16713e-008 8.68241e-007 1.68255e-006 -9.54166e-015 1.59028e-015 4.77083e-015 -3.97569e-015 0 3.18055e-015 -4.37326e-015 0 6.36111e-015 -7.16713e-008 8.68241e-007 1.68255e-006 -9.54166e-015 1.59028e-015 4.77083e-015 -4.37326e-015 0 6.36111e-015 -7.16713e-008 8.68241e-007 1.68255e-006 -9.54166e-015 1.59028e-015 4.77083e-015 7.99916 -0.19472 1.21969e-006 56.3185 -0.490175 -1.03846 -1.92522 -0.310181 9.11583 6.49225 2.60876 0.0254012 -1.19271e-015 0 3.18055e-015 3.77691e-015 3.18055e-015 4.77083e-015 4.17448e-015 1.59028e-015 -1.59028e-015 -3.97569e-015 -1.59028e-015 -0 -2.5842e-015 -1.59028e-015 9.54166e-015 -1.98785e-016 -1.59028e-015 3.18055e-015 -4.57205e-015 1.59028e-015 3.18055e-015 -2.5842e-015 -1.59028e-015 9.54166e-015 -1.98785e-016 -1.59028e-015 3.18055e-015 -4.57205e-015 1.59028e-015 3.18055e-015 -3.97569e-015 -1.59028e-015 -0 -2.5842e-015 -1.59028e-015 9.54166e-015 -1.98785e-016 -1.59028e-015 3.18055e-015 -4.57205e-015 1.59028e-015 3.18055e-015 -2.5842e-015 -1.59028e-015 9.54166e-015 -1.98785e-016 -1.59028e-015 3.18055e-015 -4.57205e-015 1.59028e-015 3.18055e-015 6.57626 -9.29116 13.5413 2.04209 40.8097 -0.512637 -11.1884 -16.8031 2.26165 -5.56814 -9.45706 -13.5956 -2.30631 41.1314 0.664343 10.3168 -17.2506 -2.61191 
42.2523 87.7798 4.56535 -0 -10.6705 -0 -0.207169 6.2128 -0.120497 -0.404709 12.426 -0.220202 -0.404709 12.426 -0.220202 3.66025e-006 -28.7877 1.78645e-006 -2.84672e-007 -0.613744 8.32183e-009 -8.00265 -0.194446 3.0269e-006 -56.1107 -0.483241 1.77056 0.172069 0.0931201 -10.2087 -6.5122 2.57103 0.0273113 1.19271e-015 3.18055e-015 -0 -3.62485e-008 -1.36749e-006 -9.98901e-007 7.95139e-016 -1.59028e-015 1.59028e-015 -1.98785e-015 1.59028e-015 -0 2.38542e-015 3.18055e-015 7.95139e-015 -3.62485e-008 -1.36749e-006 -9.98901e-007 5.96354e-015 -3.18055e-015 -0 2.38542e-015 3.18055e-015 7.95139e-015 -3.62485e-008 -1.36749e-006 -9.98901e-007 5.96354e-015 -3.18055e-015 -0 -1.98785e-015 1.59028e-015 -0 2.38542e-015 3.18055e-015 7.95139e-015 -3.62485e-008 -1.36749e-006 -9.98901e-007 5.96354e-015 -3.18055e-015 -0 2.38542e-015 3.18055e-015 7.95139e-015 -3.62485e-008 -1.36749e-006 -9.98901e-007 5.96354e-015 -3.18055e-015 -0 7.99916 -0.194691 -3.93467e-006 56.3185 -0.49017 -1.03846 -1.92526 -0.310192 9.11583 6.49224 2.60875 0.0253987 1.39149e-015 -1.59028e-015 -1.59028e-015 -1.39149e-015 1.59028e-015 -1.59028e-015 -2.82646e-008 6.99824e-007 -4.77114e-007 1.59028e-015 -3.18055e-015 -3.18055e-015 5.96354e-016 -1.59028e-015 6.36111e-015 0 1.59028e-015 -0 -2.82646e-008 6.99824e-007 -4.77114e-007 5.96354e-016 -1.59028e-015 6.36111e-015 0 1.59028e-015 -0 -2.82646e-008 6.99824e-007 -4.77114e-007 1.59028e-015 -3.18055e-015 -3.18055e-015 5.96354e-016 -1.59028e-015 6.36111e-015 0 1.59028e-015 -0 -2.82646e-008 6.99824e-007 -4.77114e-007 5.96354e-016 -1.59028e-015 6.36111e-015 0 1.59028e-015 -0 -2.82646e-008 6.99824e-007 -4.77114e-007 6.58593 -10.0143 13.5771 2.04193 40.8024 -0.512431 -11.1873 -16.8018 2.26192 -5.57425 -10.1807 -13.623 -2.30586 41.1237 0.664076 10.3157 -17.2493 -2.61216 
